<?xml version="1.0"?>
<svg height="100%"
    style="fill-rule:evenodd;clip-rule:evenodd;stroke-linejoin:round;stroke-miterlimit:2;"
    version="1.1" viewBox="0 0 212 212" width="100%" xml:space="preserve"
    xmlns="http://www.w3.org/2000/svg" xmlns:serif="http://www.serif.com/"
    xmlns:xlink="http://www.w3.org/1999/xlink"><g><path d="M151.1,142.4c0,4 -0.2,8 -0.8,11.6c-0.6,0.6 -14.6,1.6 -17.4,1.6c0.8,-4 1.2,-8.2 1.2,-13c0,-23.4 -10.8,-36.6 -30.4,-40.6c-4,-0.8 -8.4,-0.6 -13,-0.6h-24.8v84.4h28.8c13,0 22.8,-4 29.6,-11.6h19.6c-8.8,16.2 -25.4,25.8 -47.6,25.8h-47.2v-200h48.8c17.8,0 31.4,6.6 39.2,22.2c-0.2,0 -0.6,0 -1,0h-4h-14c-5.2,-6.4 -16,-8 -23.6,-8h-28.6v73h25c24.8,0 36.8,-12.6 36.8,-35.4c0,-4 -0.4,-7.6 -1.2,-11c8.4,0 15.4,0.6 17.4,1c0.4,2.8 0.6,5.6 0.6,8.6c0,18 -6,29 -13.6,35.6c-3.6,2.8 -6.6,4.6 -11.8,6.6c7.4,3 10.4,3.8 16.6,9.4c10.8,10.8 15.4,22.8 15.4,40.4zM31.1,157.4v-56.2h16.2v-14h-16.2v-48.2h16.2v-15h-33v148.4h33v-15zM185.7,128.4c0,16.4 -3.2,26.2 -10.6,33.4c-7,6.2 -15.4,9.4 -28.2,10.4c-3.4,0.2 -4.6,0.2 -79.2,0.2v-15h63c9.2,0 17.8,-0.8 21.4,-1.8c11.8,-3.2 15.2,-10.6 15.2,-26.4c0,-19.8 -10,-25.6 -28.8,-27c-4.6,-4.8 -9.8,-7.8 -14.2,-9.6c2.6,-1.4 5,-3 7.4,-4.8c13.8,-0.2 18.2,-1.2 22.4,-3.8c5.4,-3.2 7.8,-9.6 7.8,-20.2c0,-14 -4.2,-21 -16.4,-23.6c-2.4,-0.6 -9.4,-1.2 -15.4,-1.2h-62.4v-15l72.8,0.2c15.8,0.4 39.8,10 39.8,39.4c0,14.8 -6.8,26.2 -19.8,30.2c16.4,4.2 25.2,13.6 25.2,34.6z" style="fill:blue;fill-rule:nonzero;"/>></g></svg>