<?xml version="1.0"?>
<!-- <svg height="100%"
    style="fill-rule:evenodd;clip-rule:evenodd;stroke-linejoin:round;stroke-miterlimit:2;"
    version="1.1" viewBox="0 0 212 212" width="100%" xml:space="preserve"
    xmlns="http://www.w3.org/2000/svg" xmlns:serif="http://www.serif.com/"
    xmlns:xlink="http://www.w3.org/1999/xlink"><g><path d="M151.1,142.4c0,4 -0.2,8 -0.8,11.6c-0.6,0.6
-14.6,1.6 -17.4,1.6c0.8,-4 1.2,-8.2 1.2,-13c0,-23.4 -10.8,-36.6 -30.4,-40.6c-4,-0.8 -8.4,-0.6
-13,-0.6h-24.8v84.4h28.8c13,0 22.8,-4 29.6,-11.6h19.6c-8.8,16.2 -25.4,25.8
-47.6,25.8h-47.2v-200h48.8c17.8,0 31.4,6.6 39.2,22.2c-0.2,0 -0.6,0 -1,0h-4h-14c-5.2,-6.4 -16,-8
-23.6,-8h-28.6v73h25c24.8,0 36.8,-12.6 36.8,-35.4c0,-4 -0.4,-7.6 -1.2,-11c8.4,0 15.4,0.6
17.4,1c0.4,2.8 0.6,5.6 0.6,8.6c0,18 -6,29 -13.6,35.6c-3.6,2.8 -6.6,4.6 -11.8,6.6c7.4,3 10.4,3.8
16.6,9.4c10.8,10.8 15.4,22.8
15.4,40.4zM31.1,157.4v-56.2h16.2v-14h-16.2v-48.2h16.2v-15h-33v148.4h33v-15zM185.7,128.4c0,16.4
-3.2,26.2 -10.6,33.4c-7,6.2 -15.4,9.4 -28.2,10.4c-3.4,0.2 -4.6,0.2 -79.2,0.2v-15h63c9.2,0 17.8,-0.8
21.4,-1.8c11.8,-3.2 15.2,-10.6 15.2,-26.4c0,-19.8 -10,-25.6 -28.8,-27c-4.6,-4.8 -9.8,-7.8
-14.2,-9.6c2.6,-1.4 5,-3 7.4,-4.8c13.8,-0.2 18.2,-1.2 22.4,-3.8c5.4,-3.2 7.8,-9.6 7.8,-20.2c0,-14
-4.2,-21 -16.4,-23.6c-2.4,-0.6 -9.4,-1.2 -15.4,-1.2h-62.4v-15l72.8,0.2c15.8,0.4 39.8,10
39.8,39.4c0,14.8 -6.8,26.2 -19.8,30.2c16.4,4.2 25.2,13.6 25.2,34.6z"
style="fill:darkblue;fill-rule:nonzero;"/>></g></svg> -->


<svg xmlns="http://www.w3.org/2000/svg" enable-background="new 0 0 24 24" viewBox="0 0 24 24"
    id="smashing-magazine">
    <path
        d="M18.725,21.204c-0.252,0-0.493-0.128-0.633-0.348c-0.171-0.268-0.154-0.615,0.042-0.865c0.678-0.864,1.007-1.9,1.007-3.168c0-1.312-0.348-2.395-1.065-3.311c-0.226-0.275-0.503-0.552-0.836-0.833c-0.067-0.045-0.125-0.1-0.172-0.16c-0.718-0.542-1.593-1.01-2.667-1.427c-1.94-0.769-3.187-1.377-3.816-1.862C9.823,8.64,9.437,7.949,9.437,7.176c0-1.048,0.434-2.805,3.337-2.805c1.64,0,3.021,0.322,4.123,0.961l0.842-2.271c-0.776-0.345-1.584-0.609-2.411-0.791C15.038,2.2,14.806,2.148,14.56,2.11c-0.356-0.055-0.623-0.354-0.636-0.714c-0.013-0.359,0.231-0.678,0.582-0.759l2.461-0.564c1.585-0.351,3.179,0.641,3.556,2.219l3.404,14.687c0.174,0.778,0.037,1.574-0.383,2.245c-0.423,0.675-1.082,1.142-1.854,1.314l-2.795,0.646C18.838,21.198,18.781,21.204,18.725,21.204z M18.315,11.624c0.357,0.311,0.663,0.623,0.933,0.951c0.929,1.187,1.395,2.611,1.395,4.248c0,0.913-0.146,1.755-0.438,2.519l1.15-0.266c0.002-0.001,0.004-0.001,0.006-0.002c0.379-0.084,0.703-0.313,0.911-0.646c0.209-0.335,0.278-0.731,0.192-1.117L19.229,3.357l-1.265,3.409c-0.085,0.23-0.278,0.404-0.516,0.466c-0.236,0.061-0.491,0.002-0.677-0.158c-0.926-0.799-2.271-1.203-3.998-1.203c-1.837,0-1.837,0.849-1.837,1.305c0,0.106,0,0.43,0.566,0.868c0.35,0.269,1.232,0.775,3.447,1.652c1.302,0.506,2.36,1.091,3.23,1.788C18.231,11.525,18.276,11.572,18.315,11.624z M18.102,1.582c0.067,0.028,0.134,0.058,0.2,0.087C18.237,1.635,18.17,1.606,18.102,1.582z"></path>
    <path
        d="M6.361,24c-1.35,0-2.573-0.93-2.889-2.3L0.076,7.008c0-0.001,0-0.001,0-0.002c-0.364-1.591,0.633-3.187,2.223-3.558l4.104-0.946c0.328-0.08,0.665,0.075,0.826,0.37c0.161,0.294,0.107,0.659-0.132,0.896C6.971,3.891,6.851,4.02,6.744,4.153C6.124,4.936,5.83,5.858,5.83,6.996c0,1.727,0.839,3.151,2.565,4.354c0.034,0.023,0.067,0.051,0.098,0.08c0.684,0.46,1.468,0.875,2.333,1.232c1.769,0.736,2.942,1.374,3.588,1.95c0.744,0.662,1.121,1.515,1.121,2.534c-0.003,1.049-0.48,2.804-3.634,2.804c-1.696,0-3.267-0.459-4.682-1.366l-1.092,2.445c0.993,0.502,1.824,0.843,2.478,1.018l0.112,0.026c0.339,0.08,0.578,0.383,0.577,0.731s-0.241,0.65-0.581,0.729l-1.686,0.391C6.804,23.976,6.581,24,6.361,24z M1.538,6.671l3.192,13.808l1.493-3.344c0.095-0.212,0.282-0.367,0.506-0.423c0.225-0.057,0.463-0.004,0.645,0.141c1.356,1.075,2.837,1.598,4.527,1.598c2.129,0,2.132-0.882,2.134-1.306c0-0.587-0.197-1.036-0.619-1.413c-0.352-0.313-1.187-0.86-3.165-1.684c-0.989-0.409-1.889-0.89-2.674-1.427c-0.044-0.03-0.084-0.064-0.12-0.103C5.36,11.011,4.33,9.168,4.33,6.996c0-0.956,0.174-1.824,0.52-2.597l-2.212,0.51C1.852,5.093,1.358,5.883,1.538,6.671z"></path>
</svg>